<?xml version="1.0" standalone="no"?>
<!DOCTYPE svg PUBLIC "-//W3C//DTD SVG 20010904//EN"
 "http://www.w3.org/TR/2001/REC-SVG-20010904/DTD/svg10.dtd">
<svg version="1.0" xmlns="http://www.w3.org/2000/svg"
 width="118.000000pt" height="118.000000pt" viewBox="0 0 118.000000 118.000000"
 preserveAspectRatio="xMidYMid meet">
<metadata>
Created by potrace 1.14, written by Peter Selinger 2001-2017
</metadata>
<g transform="translate(0.000000,118.000000) scale(0.100000,-0.100000)"
fill="#000000" stroke="none">
<path d="M543 993 c-18 -19 -33 -38 -33 -41 0 -4 -16 -20 -36 -36 -70 -56 -89
-117 -59 -189 15 -35 69 -97 86 -97 5 0 9 -8 9 -18 0 -11 11 -24 25 -30 15 -7
25 -20 25 -32 0 -27 -10 -25 -60 11 -123 89 -163 199 -111 300 l23 43 -34 -26
c-100 -77 -94 -195 18 -349 19 -26 34 -52 34 -58 0 -17 10 -14 47 15 20 15 41
23 50 20 13 -5 9 -13 -20 -40 -44 -40 -48 -66 -12 -66 20 0 25 5 25 24 0 21
16 36 39 36 9 0 7 -40 -3 -62 -12 -27 1 -48 29 -48 30 0 43 25 27 50 -13 22
-9 55 6 54 27 -2 31 -5 34 -26 2 -15 11 -24 26 -26 36 -5 25 38 -15 63 -37 23
-40 30 -17 39 10 4 30 -4 51 -20 19 -14 35 -24 36 -23 1 2 8 13 14 24 78 126
96 161 108 205 8 29 12 57 10 63 -2 7 -6 24 -9 39 -7 29 -48 83 -76 98 -16 9
-16 6 3 -33 48 -100 7 -210 -111 -294 -53 -38 -62 -40 -62 -13 0 12 10 25 25
32 14 6 25 19 25 28 0 9 11 23 25 30 33 18 72 77 80 122 10 53 -10 102 -61
147 -24 21 -44 41 -44 45 0 9 -68 76 -77 75 -4 0 -23 -16 -40 -36z m5 -185 c3
-58 0 -93 -10 -118 l-15 -35 -41 41 c-40 39 -47 60 -42 109 5 48 73 116 94 95
5 -5 12 -47 14 -92z m150 60 c51 -55 45 -126 -15 -179 l-37 -32 -12 27 c-15
38 -17 136 -4 186 12 45 24 44 68 -2z"/>
<path d="M63 795 c-7 -8 -13 -22 -13 -32 0 -10 -4 -14 -8 -8 -11 16 -30 16
-36 0 -3 -8 3 -19 14 -25 12 -7 17 -16 13 -27 -5 -13 -2 -15 12 -9 11 4 22 2
27 -6 5 -9 8 -9 8 -1 0 6 8 9 19 6 12 -3 20 2 24 14 4 10 12 26 19 35 17 23 5
32 -22 18 -12 -7 -20 -8 -16 -2 3 5 -2 19 -12 31 -14 17 -19 18 -29 6z"/>
<path d="M1081 797 c-6 -6 -11 -20 -11 -30 0 -16 -2 -17 -15 -7 -25 21 -44 -4
-22 -28 9 -10 17 -24 17 -31 0 -8 6 -11 17 -7 9 4 20 1 25 -6 6 -10 8 -10 8
-1 0 7 7 10 15 7 8 -4 15 -2 15 3 0 5 9 18 19 30 11 11 16 25 11 32 -10 16
-21 16 -31 -1 -7 -10 -9 -9 -9 5 0 27 -24 49 -39 34z"/>
<path d="M1085 660 c-3 -5 -1 -10 4 -10 6 0 11 5 11 10 0 6 -2 10 -4 10 -3 0
-8 -4 -11 -10z"/>
<path d="M1017 550 c4 -15 0 -20 -13 -21 -14 -1 -13 -3 6 -9 14 -4 34 -8 44
-9 19 -1 19 0 -2 19 -12 12 -22 25 -22 30 0 6 -4 10 -9 10 -5 0 -7 -9 -4 -20z"/>
<path d="M135 548 c-12 -41 -13 -43 -14 -25 -1 9 -5 17 -11 17 -6 0 -6 -9 -1
-22 5 -13 11 -22 15 -20 3 1 11 2 16 2 6 0 10 10 10 21 0 18 2 20 16 9 13 -12
12 -16 -13 -36 -15 -13 -23 -23 -17 -24 7 0 21 8 33 18 19 15 20 20 9 44 -14
29 -36 37 -43 16z"/>
<path d="M971 497 c-8 -11 -7 -18 7 -29 34 -29 45 -32 37 -9 -5 16 -3 20 9 15
9 -3 16 -1 16 5 0 6 -7 11 -15 11 -8 0 -15 5 -15 10 0 15 -26 12 -39 -3z m29
-7 c0 -5 -5 -10 -11 -10 -5 0 -7 5 -4 10 3 6 8 10 11 10 2 0 4 -4 4 -10z"/>
<path d="M169 463 c-20 -21 -21 -25 -5 -19 13 4 17 2 13 -9 -4 -8 -2 -17 2
-20 5 -2 11 4 14 15 3 11 12 20 21 20 22 0 20 -9 -6 -37 -12 -13 -16 -23 -10
-23 6 0 14 5 17 10 11 18 26 -1 19 -23 -6 -21 -6 -21 20 2 32 30 33 41 4 33
-16 -4 -20 -2 -15 10 6 18 -25 52 -37 41 -4 -4 -4 0 0 10 9 25 -9 21 -37 -10z"/>
<path d="M930 445 c0 -4 7 -20 16 -38 16 -31 17 -31 25 -9 5 12 16 22 26 22
14 1 13 4 -7 15 -25 14 -60 20 -60 10z"/>
<path d="M891 407 c-29 -29 5 -75 41 -56 24 13 22 31 -6 51 -17 13 -26 14 -35
5z m22 -24 c-4 -11 -3 -14 5 -9 7 4 12 2 12 -3 0 -16 -27 -13 -33 3 -6 15 1
26 14 26 5 0 5 -7 2 -17z"/>
<path d="M295 370 c-4 -6 -1 -17 5 -25 15 -18 -1 -20 -18 -3 -8 8 -12 8 -12 1
0 -6 7 -16 15 -23 21 -18 51 6 34 27 -7 7 -9 16 -5 20 3 3 6 1 6 -6 0 -7 5 -9
10 -6 6 4 8 11 5 16 -8 12 -32 12 -40 -1z"/>
<path d="M830 367 c0 -4 7 -21 15 -38 13 -25 19 -28 35 -19 23 12 27 25 5 17
-8 -4 -22 5 -34 21 -11 15 -21 23 -21 19z"/>
<path d="M342 338 c-30 -30 10 -76 42 -49 11 9 15 6 20 -13 5 -21 12 -25 41
-24 19 1 35 4 36 7 0 3 2 16 5 29 2 12 -1 22 -6 22 -6 0 -10 -9 -10 -20 0 -14
-7 -20 -23 -20 -29 0 -37 7 -30 26 4 10 13 12 27 8 18 -6 19 -5 7 9 -10 12
-18 14 -31 7 -15 -8 -20 -6 -25 10 -7 22 -35 26 -53 8z m34 -34 c-5 -13 -10
-14 -18 -6 -6 6 -8 18 -4 28 5 13 10 14 18 6 6 -6 8 -18 4 -28z"/>
<path d="M789 345 c-2 -7 -1 -42 0 -62 2 -17 2 -17 15 0 9 11 20 15 32 10 17
-6 18 -5 4 13 -31 40 -48 53 -51 39z"/>
<path d="M738 323 c-25 -6 -29 -30 -9 -55 16 -19 21 -20 35 -9 9 7 16 18 16
23 0 6 -6 5 -15 -2 -15 -12 -35 -6 -35 11 0 5 10 13 22 18 24 9 13 20 -14 14z"/>
<path d="M498 268 c-3 -35 -2 -38 22 -38 24 1 24 1 6 15 -17 13 -18 15 -3 15
9 0 17 5 17 11 0 5 -4 7 -10 4 -5 -3 -10 -1 -10 5 0 6 10 10 23 8 16 -2 23
-11 25 -30 4 -31 19 -39 19 -10 0 53 17 58 38 10 14 -33 17 -31 28 20 3 12 1
22 -4 22 -5 0 -9 -5 -9 -11 0 -8 -4 -8 -12 -1 -7 5 -38 12 -70 14 l-56 4 -4
-38z"/>
<path d="M675 240 c3 -5 11 -10 16 -10 6 0 7 5 4 10 -3 6 -11 10 -16 10 -6 0
-7 -4 -4 -10z"/>
<path d="M432 168 c2 -12 10 -23 18 -25 10 -3 11 -2 4 4 -6 4 -10 16 -8 26 1
9 -2 17 -8 17 -5 0 -8 -10 -6 -22z"/>
<path d="M465 180 c-3 -5 -1 -10 5 -10 6 0 9 -4 5 -9 -3 -5 -1 -12 4 -15 5 -4
12 -2 15 3 4 5 2 12 -4 16 -6 4 -8 11 -5 16 4 5 2 9 -4 9 -5 0 -13 -4 -16 -10z"/>
<path d="M508 165 c2 -14 6 -25 7 -25 1 0 5 11 7 25 3 16 1 25 -7 25 -8 0 -10
-9 -7 -25z"/>
<path d="M540 171 c0 -25 12 -33 30 -19 12 8 12 9 -2 4 -12 -3 -18 0 -18 10 0
11 6 14 16 10 8 -3 12 -2 9 4 -11 17 -35 11 -35 -9z"/>
<path d="M617 183 c-3 -5 -1 -17 4 -28 7 -17 8 -17 8 8 1 27 -4 34 -12 20z"/>
<path d="M652 167 c1 -16 7 -23 16 -20 16 7 12 35 -5 40 -8 3 -12 -4 -11 -20z"/>
<path d="M693 172 c-1 -13 7 -18 27 -20 24 -2 27 1 23 18 -3 11 -9 17 -14 14
-5 -3 -7 -10 -4 -15 4 -5 1 -9 -4 -9 -6 0 -11 7 -11 15 0 21 -15 19 -17 -3z"/>
</g>
</svg>
